<svg fill="#6b6b6b" height="512pt" viewBox="0 -42 512 512" width="512pt" xmlns="http://www.w3.org/2000/svg"><path d="m457.730469 427.742188c-4.179688 0-8.011719-2.6875-9.414063-6.628907-1.378906-3.867187-.214844-8.339843 2.9375-10.992187 3.296875-2.773438 8.082032-3.121094 11.75-.863282 3.402344 2.097657 5.230469 6.179688 4.585938 10.121094-.78125 4.765625-5.039063 8.363282-9.859375 8.363282zm0 0"/><path d="m256 370.636719c-5.523438 0-10-4.476563-10-10v-75.027344c0-5.523437 4.476562-10 10-10s10 4.476563 10 10v75.027344c0 5.523437-4.476562 10-10 10zm0 0"/><path d="m502 242.722656h-144.011719v-26.667968c0-5.523438-4.476562-10-10-10h-183.976562c-5.523438 0-10 4.476562-10 10v53.296874h-144.011719c-5.523438 0-10 4.476563-10 10v138.394532c0 5.523437 4.476562 10 10 10h402.683594c5.523437 0 10-4.476563 10-10 0-5.523438-4.476563-10-10-10h-54.695313v-145.023438h134.011719v155.023438c0 5.523437 4.476562 10 10 10s10-4.476563 10-10v-165.023438c0-5.523437-4.476562-10-10-10zm-482 46.628906h134.011719v118.394532h-134.011719zm154.011719-63.296874h163.976562v181.6875h-163.976562zm0 0"/><path d="m109.769531 217.421875c-2.144531 0-4.304687-.421875-6.367187-1.277344l-16.394532-6.792969-16.398437 6.792969c-5.359375 2.222657-11.367187 1.511719-16.0625-1.898437-4.699219-3.414063-7.230469-8.90625-6.773437-14.691406l1.398437-17.695313-11.53125-13.496094c-3.773437-4.414062-4.953125-10.34375-3.160156-15.863281 1.796875-5.523438 6.234375-9.628906 11.882812-10.980469l17.257813-4.140625 9.273437-15.136718c3.03125-4.949219 8.308594-7.902344 14.113281-7.902344 5.804688 0 11.082032 2.953125 14.113282 7.902344l9.269531 15.136718 17.261719 4.140625c5.644531 1.351563 10.085937 5.457031 11.878906 10.980469 1.792969 5.519531.613281 11.449219-3.15625 15.863281l-11.527344 13.496094 1.394532 17.695313c.457031 5.785156-2.074219 11.277343-6.773438 14.691406-2.890625 2.097656-6.277344 3.175781-9.699219 3.175781zm-53.265625-57.769531 10.5625 12.367187c1.722656 2.015625 2.574219 4.636719 2.367188 7.28125l-1.28125 16.210938 15.023437-6.226563c2.453125-1.015625 5.207031-1.015625 7.65625 0l15.023438 6.226563-1.277344-16.210938c-.207031-2.644531.644531-5.265625 2.367187-7.28125l10.5625-12.367187-15.8125-3.792969c-2.582031-.617187-4.808593-2.238281-6.195312-4.5l-8.496094-13.867187-8.492187 13.867187c-1.386719 2.261719-3.617188 3.882813-6.195313 4.5zm66.480469 1.316406h.007813zm0 0"/><path d="m402.234375 217.421875c-3.425781 0-6.8125-1.078125-9.703125-3.175781-4.695312-3.414063-7.226562-8.90625-6.769531-14.691406l1.394531-17.695313-11.527344-13.492187c-3.773437-4.417969-4.953125-10.347657-3.15625-15.867188 1.792969-5.523438 6.234375-9.628906 11.878906-10.980469l17.257813-4.140625 9.273437-15.136718c3.03125-4.949219 8.308594-7.902344 14.109376-7.902344 5.808593-.003906 11.082031 2.953125 14.117187 7.902344v.003906l9.273437 15.132812 17.257813 4.140625c5.644531 1.355469 10.085937 5.460938 11.878906 10.980469 1.796875 5.523438.613281 11.453125-3.15625 15.867188l-11.527343 13.492187 1.394531 17.695313c.457031 5.789062-2.074219 11.28125-6.769531 14.691406-4.699219 3.410156-10.703126 4.121094-16.066407 1.898437l-16.398437-6.792969-16.394532 6.792969c-2.066406.855469-4.226562 1.277344-6.367187 1.277344zm22.757813-28.898437c1.304687 0 2.605468.253906 3.828124.761718l15.027344 6.226563-1.28125-16.210938c-.207031-2.644531.644532-5.265625 2.367188-7.28125l10.5625-12.367187-15.8125-3.792969c-2.582032-.617187-4.808594-2.238281-6.195313-4.5l-8.496093-13.871094-8.492188 13.871094c-1.386719 2.261719-3.613281 3.882813-6.195312 4.5l-15.816407 3.792969 10.566407 12.363281c1.722656 2.019531 2.574218 4.636719 2.367187 7.285156l-1.28125 16.210938 15.023437-6.226563c1.226563-.507812 2.527344-.761718 3.828126-.761718zm0 0"/><path d="m216.121094 165.601562c-4.445313 0-8.839844-1.398437-12.589844-4.121093-6.09375-4.429688-9.378906-11.558594-8.789062-19.070313l2.691406-34.117187-22.230469-26.019531c-4.894531-5.730469-6.425781-13.425782-4.097656-20.59375 2.328125-7.164063 8.089843-12.492188 15.417969-14.25l33.28125-7.984376 17.875-29.183593c3.9375-6.425781 10.785156-10.261719 18.320312-10.261719 7.53125 0 14.382812 3.835938 18.316406 10.261719l17.875 29.183593 33.28125 7.984376c7.328125 1.757812 13.09375 7.085937 15.421875 14.25 2.328125 7.167968.792969 14.863281-4.101562 20.59375l-22.230469 26.019531 2.691406 34.117187c.59375 7.511719-2.691406 14.640625-8.789062 19.066406-6.09375 4.429688-13.890625 5.351563-20.851563 2.46875l-31.613281-13.101562-31.617188 13.101562c-2.679687 1.109376-5.480468 1.65625-8.261718 1.65625zm39.878906-145.601562c-.828125 0-1.15625.53125-1.265625.707031l-20.039063 32.71875c-1.386718 2.261719-3.613281 3.882813-6.195312 4.5l-37.308594 8.953125c-.203125.046875-.808594.191406-1.066406.980469-.253906.789063.148438 1.265625.285156 1.421875l24.921875 29.167969c1.726563 2.019531 2.574219 4.640625 2.367188 7.285156l-3.019531 38.25c-.015626.203125-.0625.828125.609374 1.316406.671876.488281 1.246094.246094 1.4375.167969l35.445313-14.691406c2.453125-1.015625 5.203125-1.015625 7.65625 0l35.445313 14.691406c.191406.078125.765624.320312 1.4375-.167969.671874-.488281.625-1.113281.605468-1.316406l-3.015625-38.25c-.210937-2.644531.640625-5.265625 2.363281-7.285156l24.925782-29.167969c.132812-.15625.539062-.632812.28125-1.421875-.253906-.789063-.863282-.933594-1.0625-.980469l-37.3125-8.953125c-2.578125-.617187-4.808594-2.238281-6.191406-4.5l-20.042969-32.71875c-.105469-.175781-.433594-.707031-1.261719-.707031zm0 0"/></svg>